<svg preserveAspectRatio="none" width="100%" height="100%" overflow="visible" style="display: block;" viewBox="0 0 116 38" fill="none" xmlns="http://www.w3.org/2000/svg">
<path id="Line 53" d="M114.895 37.8068C114.245 38.3018 113.393 37.7725 112.745 37.046C112.542 36.8207 112.645 35.8136 112.505 35.6127C112.231 35.2211 111.976 35.715 111.705 35.2486C111.615 35.089 111.727 33.4937 111.633 33.3629C111.117 32.6579 110.63 33.0642 110.107 32.7251C107.534 31.052 105.005 30.4531 102.401 29.7262C101.542 29.4879 100.498 28.0401 99.6114 28.6733C99.5078 28.7486 99.5696 30.1489 99.5499 30.2643C99.2409 32.0312 99.3436 29.2042 99.1419 28.8287C98.3412 27.3457 97.4508 27.2167 96.6802 27.7571C96.3524 27.9911 96.6811 30.7725 96.351 29.2113C96.3281 29.1059 96.4113 27.6188 96.3214 27.4602C96.1175 27.1035 95.7307 27.3693 95.5726 27.2515C95.2681 27.0169 95.2177 27.0319 94.9297 27.0149C94.5359 26.9788 94.0676 26.2396 93.6451 26.5766C93.5549 26.6529 93.6743 28.1773 93.5305 28.4367C93.3865 28.6957 93.0057 28.5664 92.8773 28.2071C92.7489 27.8476 92.8036 26.6494 92.7809 26.3748C92.5939 24.0569 92.1534 27.2672 92.0968 27.3466C91.0634 28.6994 90.1772 26.8706 89.2072 26.8758C88.4708 26.8836 87.6834 27.4874 86.9827 27.4046C86.1479 27.3 85.4404 26.474 84.6295 26.616C84.5439 26.6292 84.6442 28.4215 84.5396 28.4413C83.4291 28.6499 82.3262 28.4545 81.2204 27.2446C81.1095 27.1216 81.2524 25.548 81.1416 25.3311C80.4633 24.0379 79.39 20.9312 78.9871 27.7826C78.5276 27.5151 77.9697 27.2387 77.5587 25.8576C77.2936 24.9687 77.551 23.2544 77.2255 23.9859C77.152 24.1489 77.2475 25.6502 77.1374 25.7811C76.6738 26.3307 76.1672 25.8426 75.7086 26.6183C75.6153 26.7796 75.6407 28.1249 75.6143 28.3671C75.3921 30.3289 75.0223 27.0859 74.9417 26.8503C74.3278 25.093 73.8794 25.7845 73.3075 25.7416C73.1748 25.7309 73.3317 27.5379 73.204 27.5925C72.5416 27.8514 71.8555 27.6961 71.2069 26.8943C71.0627 26.7116 71.1953 25.1725 71.1264 25.0064C70.8224 24.2929 70.7551 27.2001 70.4635 26.5719C70.4021 26.4433 70.4367 25.1256 70.4255 24.9809C70.25 22.7092 70.0976 25.928 70.0524 25.9991C69.4816 26.9701 69.1167 23.6098 68.5652 24.0856C68.4992 24.1459 68.648 25.8132 68.4625 25.8808C67.227 26.341 65.9202 25.883 64.6972 24.5495C64.5071 24.3444 64.6428 23.092 64.6309 22.9376C64.4358 20.5252 64.3096 23.7575 64.2477 23.8792C63.7585 24.7554 63.3016 22.0448 62.9693 25.8947C60.8977 24.5587 58.8357 26.7206 56.7813 23.2715C56.7551 23.2316 56.8019 21.6397 56.7498 21.5668C56.1223 20.673 56.2429 23.1471 55.8276 26.173C55.7231 26.9328 55.4049 23.2796 55.3767 23.0118C55.2742 22.025 55.3806 19.6566 55.3462 19.4655C55.062 17.9648 55.1083 25.7971 54.7249 25.7996C54.7129 25.7866 54.7633 24.3449 54.7311 24.2016C54.6312 23.7516 54.532 24.3244 54.4342 23.8282C54.2103 22.6799 54.1306 18.8741 53.7886 21.0891C53.7453 21.3765 53.8114 25.8193 53.4691 25.6094C53.3326 25.522 52.7286 25.5981 52.5593 25.3102C52.3902 25.0227 52.5063 23.591 52.4943 23.529C52.0387 21.6358 52.2114 20.8512 51.9832 18.0484C51.7549 15.2562 51.8182 21.9159 51.7252 22.6592C51.632 23.4005 51.298 21.8385 51.2159 21.2955C51.1338 20.7522 51.2361 19.8425 51.1632 19.5351C50.6795 17.5266 50.9509 22.8408 50.7915 23.8978C50.4157 26.4006 50.123 21.4617 49.779 20.9777C49.686 20.847 49.7619 21.9719 49.679 22.0771C49.3508 22.4788 49.1533 20.9378 48.7799 22.3508C48.7188 22.581 48.4168 25.5504 48.2214 23.3713C48.1937 23.057 48.2724 21.8263 48.1325 21.5506C47.9235 21.1369 47.5469 20.8678 47.3222 21.2792C47.1564 21.5836 47.3465 23.6116 47.1377 22.9816C47.045 22.7003 47.2169 21.5139 47.0426 21.0844C46.8692 20.655 46.4258 20.7071 46.2571 20.7481C46.0888 20.79 46.1809 22.3283 46.1673 22.4319C46.0849 23.0256 45.7618 23.7674 45.7332 23.7656C44.2927 23.9533 42.9643 21.3603 41.5617 22.2186C41.4516 22.2837 41.525 23.9059 41.5082 23.9325C41.1313 24.6122 41.4284 20.2992 41.1652 18.8555C41.2033 22.1474 41.0479 21.5514 40.7825 21.9124C40.6546 22.0891 40.7242 23.3637 40.7125 23.4942C40.5228 25.4302 40.3908 22.9296 40.3568 22.418C40.2311 20.5363 40.0944 22.7597 40.0089 21.5019C39.9235 20.2535 40.1201 18.4028 39.8656 18.4265C39.7942 19.6049 39.9832 22.6843 39.7899 23.1834C39.0607 25.0712 37.6995 22.6551 37.1132 22.4041C36.5281 22.1533 36.339 22.3708 35.9981 21.9449C35.3822 21.1749 35.6079 23.4596 35.2255 24.5054C34.8419 25.5511 35.0284 19.9295 34.9732 18.721C34.9191 17.5131 34.86 18.7565 34.7927 18.0925C34.7256 17.4286 34.8709 16.6069 34.713 16.3576C34.5551 16.1086 34.1234 18.2576 34.0674 19.5212C33.9491 22.1982 34.1436 25.0079 33.7258 24.0207C33.7018 23.9621 33.7798 22.4839 33.6878 22.3345C32.9569 21.1966 32.1976 21.126 31.4677 20.1196C31.3673 19.9789 31.4571 18.3344 31.3987 18.234C30.7903 17.1822 31.0078 19.9549 30.6743 23.035C30.7492 18.936 30.5648 16.4282 30.103 16.404C29.8254 16.388 29.8732 18.1783 29.6937 19.44C29.6398 19.8204 29.4434 18.5911 29.4078 19.4331C29.2905 22.1852 29.4755 25.266 28.9994 24.0392C28.9785 23.9809 29.045 22.4745 28.9729 22.3832C28.5063 21.7861 28.4505 24.6647 27.9462 25.0134C27.551 25.2869 26.848 23.5315 26.3979 23.246C26.4074 18.6376 25.9823 19.6929 25.8098 22.8703C25.5177 22.7402 25.2023 22.9198 24.9199 22.4807C24.8228 22.3309 24.8866 20.9966 24.8744 20.8525C24.6865 18.5909 24.5595 21.6822 24.4965 21.8034C23.8132 22.9815 23.2564 20.6385 22.6043 22.9283C22.5812 23.0108 22.5437 26.2119 22.3693 23.8746C22.3581 23.7134 22.5734 22.257 22.2667 22.1443C21.9599 22.0315 21.3815 20.3154 20.9555 21.7988C20.8525 22.1559 20.5917 24.7546 20.3825 22.7242C20.3546 22.4485 20.3851 21.5304 20.3449 21.0195C20.2148 19.3916 20.1438 22.6272 19.9909 19.8784C19.838 17.1297 19.5199 15.0711 19.0904 16.9676C19.0767 17.0227 18.975 19.5872 18.8399 19.5467C18.6243 19.4798 18.3181 18.9455 18.093 18.9622C17.9852 18.9712 18.0541 20.5636 18.0354 20.5927C17.3106 21.4851 16.7946 20.0654 16.0181 19.4493C15.8757 19.3332 15.4666 21.5047 15.191 19.7879C14.8884 17.9085 15.1994 10.0907 14.5038 11.9532C14.2232 12.6982 13.8681 22.6166 13.3639 17.4779C12.3861 18.7512 11.4819 16.1212 10.5013 17.9394C10.4573 18.02 10.3178 20.7881 10.2142 20.7504C10.0603 20.6891 9.97578 19.3954 9.8659 19.3101C9.40545 18.9204 8.98411 20.0273 8.54015 19.8552C8.37163 19.7926 8.43053 18.4548 8.22951 18.3801C8.02861 18.3066 7.89465 20.0681 7.6224 19.2174C7.41678 18.5689 7.21121 14.9682 6.93828 14.5485C6.92788 18.1002 6.74043 18.027 6.40728 18.9645C6.34322 19.1465 6.41191 20.3826 6.38161 20.5324C6.25832 21.1695 6.14423 20.145 6.02716 20.8386C5.99868 21.0051 5.99735 22.218 5.97406 22.4227C5.7761 24.2089 5.44995 21.4806 5.39393 21.0056C5.17925 19.2015 5.07893 20.779 4.91426 20.0685C4.74987 19.3582 4.99569 18.4702 4.80363 18.0391C4.40559 17.1475 3.8941 17.3434 3.48984 17.2877C3.32852 17.2729 3.43858 18.892 3.41549 18.9274C3.08196 19.3381 2.74462 17.6159 2.55969 20.8409C2.32842 12.5022 2.35855 21.6497 1.88177 19.9804C1.84421 19.8454 1.79644 15.9021 1.94062 15.3232C2.0848 14.7448 2.30345 15.9774 2.50349 15.075C2.55087 14.8633 2.82223 11.1681 2.85927 10.9443C3.14929 9.19498 3.19039 15.0877 3.20575 15.4113C3.37975 18.9041 3.71138 14.9233 3.7987 14.6483C4.19822 13.3879 4.53763 14.2166 4.87178 13.317C5.09033 12.7355 5.11171 8.8756 5.28331 8.99375C5.85378 9.38427 6.0529 14.7689 6.59047 10.1001C6.70575 9.1043 6.59119 4.8855 7.00422 8.20286C7.03017 8.412 7.3368 11.4468 7.51398 9.5272C7.53622 9.28517 7.53553 8.05566 7.56487 7.95238C7.76153 7.28428 7.8927 8.26378 8.10694 7.79466C8.32115 7.32554 8.57877 6.62618 8.82335 7.0432C8.97078 7.29256 9.1599 9.58331 9.23046 10.1441C9.42971 11.7598 9.64334 9.11083 9.76677 11.0672C9.89126 13.0335 9.64791 16.0196 9.97431 17.29C9.9864 14.0956 10.0142 10.817 10.0336 7.60448C10.7489 7.71695 11.4528 8.74987 12.1705 8.60875C12.2594 8.58806 12.1685 6.87076 12.2638 6.80431C12.6663 6.53149 13.0178 7.75569 13.4352 7.26817C13.7582 6.88424 14.1125 5.06599 14.4503 4.6079C14.6566 8.26315 15.1579 7.02228 15.522 7.35631C15.6496 7.47173 15.641 8.44797 15.7318 8.76646C16.074 9.94436 15.9136 6.71425 16.0074 6.20592C16.41 4.03643 16.4444 11.3476 16.919 11.167C16.9441 11.1599 17.2515 7.2627 17.2938 7.02001C17.5628 5.43748 17.3383 8.37646 17.5066 8.66441C17.814 9.19062 18.0275 10.1213 18.3881 8.97984C18.4933 8.64174 18.7455 6.21267 18.9497 8.09154C18.9765 8.33756 18.9617 9.62572 18.9833 9.70115C19.3746 10.9586 19.3849 6.91108 19.6086 5.54027C19.8322 4.16977 20.1777 6.96386 20.248 7.76915C20.4319 9.85239 20.107 8.65945 20.0971 8.86387C19.9801 11.2968 20.232 10.8779 20.4245 11.0835C20.4524 15.0521 20.7216 14.8139 20.6241 11.2806C20.613 10.8947 20.4632 11.2648 20.4245 11.0835C20.5935 7.18965 20.8894 6.69097 21.2162 10.3297C21.3692 12.0351 21.2245 14.0235 21.6892 13.2961C21.9001 12.9677 21.8186 10.2351 22.0047 9.49009C22.4299 7.79027 22.9824 10.3394 23.4207 9.93772C23.5798 9.79191 23.4248 8.29608 23.5336 8.14488C23.8221 7.73895 24.0766 8.86129 24.3664 8.28636C24.3926 8.23237 24.3285 6.66655 24.4186 6.64659C25.1017 6.46475 25.6966 7.46767 26.4099 7.49547C26.7545 7.50819 27.3706 6.6446 27.7276 6.81822C28.3464 7.1099 29.1076 9.38686 29.6362 8.83372C29.9809 8.47965 29.9053 6.9135 30.053 5.84643C30.3381 3.77799 30.8426 7.48303 30.9106 8.05675C30.9127 8.07573 30.616 8.44494 30.7743 9.24888C30.8663 10.924 30.9072 8.06401 30.9106 8.05675C30.9552 8.42736 31.5478 8.78289 31.6655 8.4835C31.7295 8.31989 31.6937 6.83605 31.727 6.7788C32.5194 5.45091 33.3133 5.07377 34.117 5.76757C34.1311 5.79755 34.1098 7.45731 34.1431 7.50707C34.6084 8.24504 34.9063 6.21463 35.2901 5.00915C35.6738 3.8042 35.9781 4.20777 36.2052 7.05712C36.4947 6.69836 36.91 7.95805 37.149 8.72239C37.388 9.48673 37.4214 6.25587 37.4424 6.19201C38.0983 4.14769 38.4775 5.99697 39.158 6.28478C39.4815 6.42715 40.1233 5.95851 40.4736 5.60522C40.7504 5.3206 40.9172 6.07776 41.1723 5.59362C41.2068 5.52896 41.1719 4.09042 41.1825 4.03503C41.4672 2.3139 41.3303 5.83065 41.3891 6.45873C41.6022 8.74276 41.7339 9.95922 42.0985 8.88475C42.1826 8.63868 42.4275 3.57506 42.5808 3.27893C42.7801 2.9032 42.7049 4.71821 42.9136 4.27856C42.9314 4.2426 42.9277 3.12287 43.0565 3.17224C43.6543 3.38669 44.3061 4.03824 44.9274 3.92602C45.0123 3.91499 44.9035 2.13893 45.0261 2.09375C45.6014 1.88322 46.2321 1.94895 46.7926 2.78027C46.9305 2.99048 46.8441 4.23403 46.874 4.60327C47.0578 6.83738 47.3186 3.59127 47.3616 3.52942C48.3879 1.96949 49.1733 4.90718 50.2193 3.50854C50.2763 3.42643 50.7145 -0.0534636 50.9101 2.93103C50.9235 3.12959 51.1169 6.18303 51.288 4.09533C51.2986 3.96473 51.1781 2.39276 51.3884 2.55298C51.5988 2.71285 51.9374 1.6631 52.2265 3.39026C52.3181 3.93434 52.5345 6.98025 52.8076 4.55224C52.8253 4.38274 53.2469 -1.10733 53.3974 2.68054C53.4218 3.30406 53.3963 7.3125 53.7222 5.25732C53.7845 4.85888 53.6714 3.96479 53.8355 3.40649C54.0869 2.54603 54.4199 3.61962 54.7289 1.83399C54.7828 1.51787 55.0122 -1.20281 55.1962 0.862189C55.225 1.1856 55.1703 2.52382 55.2674 2.67358C55.7295 3.39197 56.2134 2.49683 56.6826 3.42273C56.8487 3.74807 56.7638 5.91145 56.937 6.4912C57.1103 7.07075 57.4593 7.62825 57.6406 6.63964C57.8219 5.65059 57.6238 2.20267 57.8955 1.92676C59.0764 0.728476 60.2462 2.75112 61.4254 3.047C61.6002 3.09119 61.4553 1.85741 61.713 1.83399C62.6632 1.7422 64.3037 0.585405 65.1282 3.20703C65.7889 5.30681 64.9575 6.9054 65.4623 7.75987C65.7059 8.16748 65.9695 4.15891 66.0283 4.03271C66.6028 2.75078 67.002 4.52649 67.5191 3.98169C67.6259 3.86863 67.5211 2.24392 67.612 2.16565C67.9224 1.88389 68.2487 2.60909 68.5453 2.47644C68.6783 2.41319 68.6538 1.1723 68.7763 1.26807C69.0692 1.48294 69.3283 2.00456 69.6139 3.1676C69.64 3.27358 69.4644 4.81721 69.6812 4.87463C70.032 4.96316 70.4675 6.1105 70.8711 4.92565C70.9908 4.56923 70.9955 1.73318 71.253 3.69177C71.307 4.10084 71.2381 7.50631 71.5379 4.56384C71.5884 4.07487 72.0921 0.106008 72.3393 2.66431C72.4045 3.33762 72.571 6.12434 72.715 5.68639C72.7345 5.61651 72.6563 4.09317 72.7756 3.94458C73.1962 3.44741 73.637 3.60994 74.0691 3.13281C74.1845 3.00239 74.0126 1.42603 74.1846 1.28199C74.6575 0.88355 75.2479 1.28492 75.7103 1.77832C75.8808 1.96323 75.763 3.26903 75.7754 3.41113C75.9749 5.72248 76.0928 2.60269 76.159 2.42078C76.5708 1.3315 76.8844 2.79699 77.264 2.40918C77.3687 2.30611 77.2944 0.818561 77.3153 0.68592C77.5315 -0.61008 77.3705 2.06137 77.5073 2.35584C77.8908 3.18964 78.3183 3.07009 78.7061 2.88C78.8485 2.808 78.6884 1.08315 78.8163 1.03846C79.5729 0.741237 80.3594 0.906285 81.0978 1.85718C81.2369 2.03935 81.1494 3.36754 81.1784 3.6709C81.3781 5.79329 81.6708 2.89833 81.7381 2.62256C82.0444 1.36342 82.1633 2.53796 82.4338 2.31873C83.7549 1.22721 85.3861 2.00513 86.6331 2.48572C88.2582 3.10424 89.5192 4.36777 91.0688 4.03967C91.1673 4.02048 91.068 2.25358 91.1529 2.21436C92.249 1.78842 93.3282 2.47884 94.4265 1.96851C94.5167 1.92976 94.3868 0.254733 94.5314 0.136239C94.8281 -0.118554 95.204 -0.0275116 95.504 0.507331C95.6504 0.765031 95.4541 2.20236 95.6014 2.43237C95.9444 2.97125 96.312 3.09055 96.6643 2.82202C96.8142 2.7041 96.588 0.990968 96.7829 0.971197C98.1103 0.801241 99.4139 0.506197 100.755 2.72461C100.847 2.87697 100.928 6.35873 101.123 5.69103C101.138 4.72475 101.137 3.5881 101.144 2.5553C103.076 1.99894 104.989 3.20596 106.926 3.39258C107.008 3.40005 106.867 1.55524 107.025 1.56031C107.941 1.58758 108.83 1.07651 109.766 2.91016C109.859 3.08948 109.811 6.33495 110.085 5.84411C110.133 5.75454 110.546 5.32171 110.652 4.61718C110.667 4.51091 110.592 2.99605 110.724 2.9519C111.497 2.72187 112.306 3.0677 113.077 3.99328C113.201 4.14556 113.069 5.75876 113.157 5.88122C113.786 6.73757 114.47 5.51125 115.07 6.97594C115.472 7.96216 115.324 10.7507 115.537 13.4956C115.567 13.8828 115.816 13.9442 115.829 15.5412C115.862 19.5571 115.742 23.9544 115.791 28.2349C115.802 29.1569 116.135 28.1639 115.938 30.3919C115.924 30.541 115.682 31.2805 115.623 32.0363C115.581 32.5588 115.656 34.183 115.571 34.8519C115.487 35.5203 115.394 34.1588 115.254 34.9447C115.113 35.7404 115.175 37.5881 114.895 37.8068ZM38.2252 12.1388C38.4465 13.6903 38.4792 8.00754 38.2398 9.36717C38.2282 9.43963 38.2138 12.0626 38.2252 12.1388ZM11.4487 13.0363C11.7381 15.5429 11.9361 11.8573 11.732 9.92149C11.5279 7.98777 11.3606 12.2765 11.4487 13.0363ZM8.44855 14.8663C8.78671 16.8426 8.83993 8.78413 8.47776 10.4132C8.4567 10.5052 8.42879 14.7515 8.44855 14.8663ZM114.546 14.2772C114.549 14.3527 114.728 14.4262 114.733 14.3514C114.828 12.5466 114.47 12.4007 114.546 14.2772ZM5.47137 16.8586C5.57694 17.9487 5.88087 16.6903 5.74971 15.3348C5.64412 14.2443 5.33992 15.5026 5.47137 16.8586ZM49.7697 18.2038C49.7732 18.2885 49.9015 18.3647 49.899 17.8861C49.8902 16.3443 49.7117 16.7794 49.7697 18.2038ZM0.411322 16.9514C1.15892 17.2547 1.61219 23.9114 0.798071 23.1602C0.650637 23.0243 1.11583 21.0375 0.928168 20.4373C0.584809 19.344 0.35682 23.5235 0.00643015 21.2839C-0.0570078 20.8739 0.368682 16.9193 0.41265 16.9421C0.412207 16.9452 0.411765 16.9483 0.411322 16.9514ZM38.3527 18.9645C38.3571 19.0397 38.5347 19.1109 38.5389 19.0364C38.6351 17.2323 38.2773 17.0877 38.3527 18.9645ZM57.2565 21.7176C57.2663 21.8777 57.6785 22.0275 57.6919 21.8799C57.907 18.9297 57.0736 18.6182 57.2565 21.7176ZM26.3908 23.1231C26.197 24.9381 25.9652 25.1518 25.8107 22.8726C26.0033 22.9936 26.1972 23.0114 26.3908 23.1231Z" fill="var(--stroke-0, #F8EDE4)" fill-opacity="0.4"/>
</svg>
