<svg preserveAspectRatio="none" width="100%" height="100%" overflow="visible" style="display: block;" viewBox="0 0 148 26" fill="none" xmlns="http://www.w3.org/2000/svg">
<path id="Line 52" d="M145.976 25.3729C145.15 25.6985 144.067 25.3503 143.244 24.8724C142.987 24.7242 143.117 24.0616 142.939 23.9294C142.591 23.6718 142.267 23.9967 141.923 23.6898C141.809 23.5849 141.951 22.5353 141.831 22.4493C141.176 21.9855 140.556 22.2528 139.893 22.0297C136.624 20.9289 133.41 20.5349 130.102 20.0567C129.011 19.9 127.684 18.9474 126.557 19.364C126.426 19.4136 126.504 20.3348 126.479 20.4107C126.087 21.5731 126.217 19.7133 125.961 19.4662C124.944 18.4906 123.812 18.4057 122.833 18.7613C122.417 18.9152 122.835 20.7451 122.415 19.718C122.386 19.6486 122.492 18.6703 122.377 18.566C122.118 18.3313 121.627 18.5061 121.426 18.4286C121.039 18.2743 120.975 18.2841 120.609 18.273C120.109 18.2492 119.514 17.7629 118.977 17.9846C118.863 18.0348 119.014 19.0377 118.832 19.2083C118.649 19.3787 118.165 19.2937 118.002 19.0573C117.839 18.8208 117.908 18.0325 117.879 17.8518C117.642 16.3269 117.082 18.439 117.01 18.4912C115.697 19.3812 114.571 18.178 113.339 18.1814C112.403 18.1866 111.403 18.5838 110.513 18.5293C109.452 18.4606 108.553 17.9171 107.523 18.0105C107.414 18.0192 107.541 19.1984 107.409 19.2114C105.998 19.3486 104.596 19.2201 103.192 18.424C103.051 18.3432 103.232 17.3079 103.091 17.1652C102.23 16.3144 100.866 14.2705 100.354 18.778C99.7703 18.602 99.0615 18.4202 98.5392 17.5116C98.2025 16.9268 98.5296 15.7989 98.1159 16.2802C98.0226 16.3874 98.1439 17.3751 98.004 17.4612C97.415 17.8228 96.7714 17.5017 96.1886 18.0121C96.0701 18.1182 96.1025 19.0032 96.0689 19.1626C95.7866 20.4532 95.3168 18.3197 95.2143 18.1646C94.4343 17.0086 93.8647 17.4635 93.1381 17.4353C92.9695 17.4282 93.1688 18.617 93.0065 18.6529C92.165 18.8233 91.2933 18.7211 90.4693 18.1936C90.286 18.0734 90.4545 17.0608 90.367 16.9516C89.9808 16.4822 89.8952 18.3948 89.5248 17.9815C89.4467 17.8969 89.4907 17.03 89.4764 16.9348C89.2535 15.4403 89.0598 17.5579 89.0025 17.6047C88.2772 18.2435 87.8136 16.0328 87.1129 16.3458C87.0291 16.3855 87.2181 17.4824 86.9825 17.5268C85.4127 17.8296 83.7525 17.5283 82.1986 16.651C81.957 16.5161 82.1295 15.6921 82.1143 15.5905C81.8665 14.0034 81.7062 16.1299 81.6274 16.21C81.006 16.7865 80.4255 15.0031 80.0032 17.536C77.3713 16.657 74.7514 18.0793 72.1413 15.8102C72.1081 15.7839 72.1676 14.7366 72.1013 14.6887C71.3041 14.1007 71.4572 15.7284 70.9297 17.7191C70.7968 18.219 70.3926 15.8155 70.3568 15.6393C70.2265 14.9901 70.3617 13.432 70.318 13.3063C69.957 12.319 70.0158 17.4718 69.5287 17.4734C69.5134 17.4648 69.5774 16.5164 69.5366 16.4221C69.4095 16.126 69.2836 16.5029 69.1593 16.1764C68.8748 15.421 68.7735 12.9172 68.339 14.3744C68.2841 14.5635 68.368 17.4864 67.9331 17.3483C67.7598 17.2908 66.9923 17.3409 66.7772 17.1515C66.5624 16.9623 66.7099 16.0204 66.6946 15.9796C66.1158 14.7341 66.3352 14.2179 66.0452 12.374C65.7553 10.537 65.8357 14.9184 65.7175 15.4074C65.5991 15.895 65.1747 14.8674 65.0704 14.5102C64.9661 14.1528 65.0961 13.5543 65.0035 13.352C64.3889 12.0307 64.7337 15.5268 64.5312 16.2222C64.0538 17.8688 63.682 14.6195 63.2449 14.3011C63.1266 14.2152 63.2231 14.9552 63.1178 15.0244C62.7007 15.2887 62.4499 14.2748 61.9754 15.2045C61.8978 15.3559 61.5142 17.3095 61.2659 15.8758C61.2307 15.6691 61.3307 14.8594 61.1529 14.678C60.8874 14.4058 60.4089 14.2288 60.1235 14.4995C59.9128 14.6997 60.1543 16.034 59.889 15.6195C59.7712 15.4344 59.9896 14.6539 59.7682 14.3713C59.5479 14.0888 58.9846 14.1231 58.7702 14.1501C58.5563 14.1776 58.6734 15.1897 58.6561 15.2579C58.5515 15.6484 58.1409 16.1364 58.1046 16.1352C56.2744 16.2588 54.5866 14.5529 52.8047 15.1175C52.6648 15.1603 52.758 16.2276 52.7366 16.2451C52.2579 16.6922 52.6353 13.8547 52.3009 12.905C52.3493 15.0707 52.1518 14.6785 51.8146 14.9161C51.6521 15.0323 51.7406 15.8709 51.7258 15.9567C51.4848 17.2304 51.317 15.5853 51.2738 15.2487C51.1142 14.0107 50.9405 15.4735 50.8319 14.646C50.7233 13.8247 50.9731 12.6071 50.6497 12.6227C50.559 13.3979 50.7991 15.4239 50.5536 15.7522C49.6271 16.9942 47.8977 15.4047 47.1528 15.2395C46.4093 15.0746 46.1692 15.2176 45.736 14.9374C44.9535 14.4308 45.2403 15.934 44.7544 16.622C44.2671 17.3099 44.504 13.6115 44.4339 12.8165C44.3652 12.0218 44.2901 12.8398 44.2045 12.4029C44.1193 11.9662 44.3039 11.4256 44.1033 11.2616C43.9027 11.0978 43.3542 12.5116 43.2831 13.3429C43.1327 15.1041 43.3799 16.9526 42.8491 16.3031C42.8185 16.2645 42.9176 15.2921 42.8007 15.1938C41.8721 14.4451 40.9075 14.3987 39.9801 13.7366C39.8526 13.644 39.9666 12.5621 39.8924 12.496C39.1194 11.804 39.3957 13.6282 38.9721 15.6546C39.0672 12.9579 38.8329 11.308 38.2463 11.2921C37.8936 11.2816 37.9543 12.4594 37.7262 13.2895C37.6578 13.5397 37.4082 12.731 37.363 13.2849C37.2139 15.0955 37.4489 17.1224 36.8441 16.3153C36.8176 16.2769 36.9021 15.2858 36.8104 15.2258C36.2176 14.8329 36.1467 16.7268 35.506 16.9562C35.0038 17.1361 34.1107 15.9813 33.5389 15.7934C33.5509 12.7616 33.0108 13.4558 32.7917 15.5462C32.4206 15.4607 32.0198 15.5788 31.6611 15.2899C31.5377 15.1914 31.6188 14.3136 31.6032 14.2187C31.3645 12.7309 31.2031 14.7646 31.1231 14.8443C30.2549 15.6194 29.5476 14.078 28.7191 15.5844C28.6897 15.6387 28.642 17.7447 28.4205 16.207C28.4062 16.101 28.6798 15.1427 28.2901 15.0686C27.9003 14.9944 27.1654 13.8654 26.6243 14.8413C26.4933 15.0762 26.1621 16.7859 25.8962 15.4501C25.8608 15.2687 25.8995 14.6647 25.8484 14.3286C25.6831 13.2576 25.5929 15.3863 25.3987 13.5779C25.2044 11.7695 24.8003 10.4152 24.2546 11.6629C24.2372 11.6992 24.108 13.3863 23.9363 13.3597C23.6623 13.3156 23.2734 12.9642 22.9873 12.9752C22.8503 12.981 22.938 14.0287 22.9143 14.0478C21.9932 14.6349 21.3378 13.7009 20.3511 13.2956C20.1703 13.2192 19.6505 14.6478 19.3004 13.5184C18.9159 12.2819 19.311 7.13859 18.4273 8.36396C18.0708 8.85408 17.6196 15.3793 16.979 11.9986C15.7367 12.8363 14.5878 11.1061 13.3421 12.3022C13.286 12.3552 13.1089 14.1764 12.9772 14.1516C12.7817 14.1113 12.6744 13.2601 12.5347 13.204C11.9497 12.9476 11.4144 13.6759 10.8504 13.5626C10.6363 13.5215 10.7111 12.6413 10.4557 12.5922C10.2005 12.5438 10.0303 13.7027 9.68434 13.143C9.42312 12.7164 9.16193 10.3475 8.81517 10.0714C8.80194 12.408 8.56383 12.3599 8.14051 12.9767C8.05917 13.0964 8.14643 13.9096 8.10791 14.0082C7.95128 14.4273 7.8063 13.7533 7.65758 14.2096C7.62142 14.3192 7.61969 15.1171 7.59012 15.2518C7.33862 16.4269 6.92425 14.632 6.85306 14.3194C6.58032 13.1325 6.45285 14.1704 6.24363 13.703C6.03476 13.2357 6.34706 12.6514 6.10307 12.3679C5.59735 11.7813 4.94749 11.9101 4.43389 11.8735C4.22894 11.8638 4.36876 12.9289 4.33943 12.9523C3.91563 13.2224 3.4871 12.0894 3.25212 14.2111C2.95829 8.72515 2.99656 14.7432 2.39081 13.645C2.3431 13.5562 2.28237 10.9619 2.46559 10.5811C2.64877 10.2006 2.92658 11.0115 3.18071 10.4178C3.24093 10.2785 3.58568 7.84746 3.63273 7.7002C4.00124 6.54933 4.05343 10.4261 4.07294 10.639C4.29403 12.9369 4.71536 10.318 4.82629 10.137C5.33387 9.30783 5.76514 9.85304 6.18965 9.26117C6.46732 8.87865 6.4945 6.33921 6.71251 6.41694C7.4373 6.67386 7.69029 10.2164 8.37328 7.14479C8.51972 6.48967 8.37421 3.71415 8.89894 5.89662C8.93191 6.03421 9.32153 8.03078 9.5466 6.76789C9.57487 6.60866 9.57397 5.79978 9.61127 5.73183C9.86114 5.29229 10.0277 5.9367 10.3 5.62807C10.5721 5.31943 10.8994 4.85933 11.2102 5.13368C11.3975 5.29774 11.6378 6.80481 11.7274 7.17378C11.9806 8.23668 12.252 6.49397 12.4088 7.78108C12.567 9.07466 12.2578 11.0392 12.6725 11.875C12.6879 9.77345 12.7231 7.61642 12.7478 5.50295C13.6567 5.57694 14.5509 6.25649 15.4627 6.16365C15.5758 6.15004 15.4602 5.02024 15.5814 4.97652C16.0927 4.79703 16.5393 5.60243 17.0695 5.28169C17.48 5.0291 17.9301 3.83289 18.3592 3.53152C18.6214 5.93628 19.2582 5.11992 19.7209 5.33968C19.883 5.41561 19.8721 6.05788 19.9874 6.26741C20.4222 7.04235 20.2184 4.91727 20.3376 4.58284C20.8491 3.15555 20.8928 7.96553 21.4958 7.84669C21.5277 7.84202 21.9182 5.27809 21.972 5.11843C22.3137 4.07729 22.0286 6.01083 22.2424 6.20027C22.6329 6.54646 22.9042 7.15877 23.3623 6.40779C23.4959 6.18535 23.8164 4.58728 24.0758 5.82338C24.1099 5.98524 24.091 6.83271 24.1185 6.88234C24.6157 7.70963 24.6288 5.04677 24.9129 4.14492C25.1971 3.24327 25.636 5.08148 25.7253 5.61128C25.959 6.98183 25.5462 6.197 25.5336 6.33149C25.3849 7.93208 25.705 7.65651 25.9496 7.79176C25.985 10.4027 26.3271 10.246 26.2032 7.92146C26.1891 7.66755 25.9987 7.91104 25.9496 7.79176C26.1643 5.23004 26.5402 4.90196 26.9554 7.29585C27.1498 8.41783 26.966 9.726 27.5564 9.24744C27.8243 9.03141 27.7208 7.23362 27.9573 6.74348C28.4974 5.62518 29.1994 7.30221 29.7563 7.03797C29.9585 6.94204 29.7616 5.95795 29.8997 5.85847C30.2663 5.59141 30.5896 6.3298 30.9578 5.95155C30.9911 5.91603 30.9096 4.88589 31.0241 4.87276C31.8921 4.75312 32.6478 5.41294 33.5541 5.43123C33.9919 5.4396 34.7747 4.87145 35.2283 4.98567C36.0144 5.17757 36.9815 6.67556 37.6531 6.31166C38.0911 6.07872 37.995 5.04836 38.1827 4.34633C38.5449 2.98552 39.186 5.42305 39.2723 5.80049C39.2749 5.81298 38.898 6.05588 39.0991 6.58479C39.2161 7.68686 39.268 5.80527 39.2723 5.80049C39.329 6.04432 40.0819 6.27822 40.2314 6.08125C40.3126 5.97361 40.2672 4.9974 40.3096 4.95973C41.3163 4.08612 42.3249 3.83801 43.346 4.29445C43.364 4.31417 43.3369 5.40612 43.3792 5.43886C43.9704 5.92437 44.3489 4.58857 44.8365 3.79549C45.3239 3.00276 45.7105 3.26827 45.9991 5.14284C46.3669 4.90682 46.8946 5.73556 47.1983 6.23842C47.502 6.74127 47.5443 4.6157 47.571 4.57369C48.4044 3.22874 48.8862 4.44538 49.7507 4.63472C50.1618 4.72839 50.9771 4.42008 51.4222 4.18764C51.7739 4.00039 51.9858 4.49853 52.3099 4.18001C52.3538 4.13748 52.3095 3.19106 52.3228 3.15463C52.6845 2.0223 52.5107 4.33595 52.5854 4.74916C52.8561 6.25182 53.0234 7.05212 53.4866 6.34523C53.5934 6.18334 53.9047 2.85201 54.0994 2.65719C54.3526 2.41 54.2571 3.60408 54.5222 3.31484C54.5449 3.29118 54.5402 2.55452 54.7038 2.587C55.4634 2.72808 56.2915 3.15674 57.0808 3.08291C57.1886 3.07565 57.0504 1.90719 57.2062 1.87747C57.9372 1.73896 58.7384 1.78221 59.4505 2.32913C59.6258 2.46742 59.5159 3.28555 59.554 3.52846C59.7876 4.99827 60.1189 2.86268 60.1735 2.82198C61.4774 1.79572 62.4753 3.72841 63.8043 2.80825C63.8766 2.75423 64.4334 0.464827 64.6819 2.42831C64.6989 2.55894 64.9447 4.56778 65.162 3.1943C65.1755 3.10837 65.0223 2.07419 65.2896 2.17959C65.5569 2.28477 65.9871 1.59414 66.3545 2.73043C66.4708 3.08838 66.7457 5.09227 67.0926 3.4949C67.1153 3.38338 67.6509 -0.228504 67.8421 2.26351C67.873 2.67372 67.8406 5.31085 68.2547 3.95876C68.3338 3.69663 68.1902 3.10842 68.3986 2.74111C68.718 2.17502 69.1412 2.88133 69.5337 1.70657C69.6022 1.4986 69.8937 -0.291324 70.1274 1.06723C70.164 1.28 70.0945 2.16041 70.2179 2.25894C70.805 2.73156 71.4198 2.14265 72.0159 2.75179C72.227 2.96584 72.1191 4.38911 72.3392 4.77053C72.5593 5.15181 73.0027 5.51859 73.2331 4.86818C73.4635 4.21749 73.2118 1.94912 73.5569 1.76761C75.0573 0.979261 76.5435 2.30995 78.0417 2.5046C78.2638 2.53367 78.0796 1.72198 78.4071 1.70657C79.6143 1.64618 81.6987 0.885135 82.7462 2.60989C83.5856 3.99132 82.5293 5.04302 83.1707 5.60518C83.4802 5.87335 83.815 3.23613 83.8897 3.1531C84.6196 2.30972 85.1269 3.47795 85.7838 3.11953C85.9195 3.04515 85.7864 1.97626 85.9019 1.92477C86.2963 1.7394 86.7108 2.21651 87.0876 2.12924C87.2567 2.08763 87.2255 1.27125 87.3811 1.33426C87.7533 1.47562 88.0825 1.81879 88.4453 2.58395C88.4784 2.65367 88.2554 3.66922 88.5308 3.70699C88.9765 3.76524 89.5298 4.52006 90.0426 3.74056C90.1947 3.50607 90.2007 1.64025 90.5278 2.9288C90.5964 3.19792 90.5088 5.43836 90.8898 3.50252C90.9539 3.18083 91.5939 0.569742 91.908 2.25283C91.9908 2.6958 92.2023 4.52917 92.3853 4.24105C92.4101 4.19507 92.3107 3.19287 92.4623 3.09512C92.9967 2.76803 93.5567 2.87496 94.1056 2.56106C94.2522 2.47526 94.0339 1.43818 94.2524 1.34341C94.8532 1.08128 95.6034 1.34534 96.1909 1.66995C96.4075 1.7916 96.2578 2.65068 96.2735 2.74417C96.527 4.26479 96.6768 2.2123 96.761 2.09262C97.2842 1.37599 97.6826 2.34013 98.1648 2.08499C98.2979 2.01718 98.2035 1.03853 98.23 0.951263C98.5048 0.0986317 98.3001 1.85616 98.474 2.04989C98.9612 2.59845 99.5043 2.5198 99.997 2.39474C100.178 2.34737 99.9746 1.2126 100.137 1.1832C101.098 0.987656 102.098 1.09624 103.036 1.72183C103.212 1.84168 103.101 2.71548 103.138 2.91506C103.392 4.31137 103.764 2.40679 103.849 2.22537C104.238 1.39698 104.389 2.16971 104.733 2.02548C106.412 1.30738 108.484 1.81916 110.068 2.13534C112.133 2.54226 113.735 3.37353 115.704 3.15768C115.829 3.14505 115.703 1.98262 115.811 1.95681C117.204 1.67659 118.575 2.13082 119.97 1.79507C120.085 1.76958 119.92 0.667588 120.103 0.589631C120.48 0.422004 120.958 0.4819 121.339 0.833771C121.525 1.00331 121.276 1.94892 121.463 2.10025C121.898 2.45477 122.366 2.53326 122.813 2.35659C123.004 2.27901 122.716 1.15195 122.964 1.13895C124.65 1.02713 126.307 0.833024 128.011 2.29251C128.128 2.39274 128.23 4.68337 128.479 4.2441C128.497 3.60839 128.496 2.86059 128.504 2.18112C130.959 1.81509 133.389 2.60918 135.851 2.73196C135.955 2.73687 135.776 1.52318 135.977 1.52652C137.14 1.54446 138.269 1.20823 139.459 2.41458C139.577 2.53255 139.517 4.66773 139.864 4.34481C139.926 4.28588 140.45 4.00112 140.585 3.53762C140.604 3.4677 140.508 2.47109 140.677 2.44204C141.658 2.2907 142.686 2.51823 143.665 3.12716C143.824 3.22734 143.655 4.28866 143.768 4.36922C144.566 4.93261 145.435 4.12582 146.198 5.08943C146.709 5.73826 146.52 7.57283 146.791 9.37867C146.83 9.63344 147.146 9.67382 147.162 10.7245C147.204 13.3665 147.051 16.2595 147.114 19.0756C147.127 19.6822 147.551 19.0289 147.3 20.4947C147.283 20.5928 146.976 21.0792 146.9 21.5765C146.847 21.9203 146.942 22.9888 146.835 23.4289C146.727 23.8686 146.609 22.9729 146.431 23.4899C146.253 24.0134 146.331 25.229 145.976 25.3729ZM48.5656 8.48603C48.8468 9.5068 48.8882 5.76812 48.5842 6.66261C48.5694 6.71028 48.5511 8.43595 48.5656 8.48603ZM14.5458 9.07654C14.9134 10.7256 15.1649 8.30084 14.9056 7.02729C14.6463 5.75511 14.4338 8.57666 14.5458 9.07654ZM10.734 10.2805C11.1636 11.5806 11.2312 6.27903 10.7711 7.35078C10.7443 7.41134 10.7089 10.205 10.734 10.2805ZM145.533 9.89288C145.536 9.94253 145.764 9.99092 145.769 9.94171C145.89 8.75431 145.436 8.65838 145.533 9.89288ZM6.95145 11.5912C7.08557 12.3083 7.47173 11.4805 7.30508 10.5887C7.17092 9.87127 6.78442 10.6991 6.95145 11.5912ZM63.2331 12.4762C63.2375 12.5319 63.4005 12.5821 63.3972 12.2671C63.3862 11.2528 63.1593 11.5391 63.2331 12.4762ZM0.522599 11.6522C1.47243 11.8518 2.04833 16.2312 1.01396 15.737C0.82665 15.6476 1.41766 14.3404 1.17925 13.9456C0.743004 13.2263 0.453354 15.976 0.0081608 14.5026C-0.0724194 14.2329 0.468412 11.6311 0.524276 11.6461C0.523694 11.6481 0.52315 11.6502 0.522599 11.6522ZM48.7275 12.9767C48.7331 13.0261 48.9588 13.073 48.9642 13.024C49.0864 11.8371 48.6318 11.7419 48.7275 12.9767ZM72.7451 14.7879C72.7575 14.8932 73.2812 14.9918 73.2983 14.8947C73.5715 12.9538 72.5127 12.7488 72.7451 14.7879ZM33.5299 15.7126C33.2837 16.9066 32.9891 17.0472 32.7928 15.5478C33.0375 15.6274 33.2839 15.6391 33.5299 15.7126Z" fill="var(--stroke-0, #F8EDE4)" fill-opacity="0.4"/>
</svg>
