<svg preserveAspectRatio="none" width="100%" height="100%" overflow="visible" style="display: block;" viewBox="0 0 108 33" fill="none" xmlns="http://www.w3.org/2000/svg">
<g id="Group 94">
<path id="Star 2" d="M11.5671 7.27069C12.0939 5.28915 14.9061 5.28914 15.4329 7.27069L16.1359 9.91506C16.3688 10.7913 17.162 11.4012 18.0687 11.4012H21.0749C22.9144 11.4012 23.7784 13.6753 22.4029 14.8967L19.3257 17.6293C18.7607 18.131 18.5267 18.9083 18.7208 19.6386L19.7282 23.4281C20.2375 25.3437 17.9495 26.7536 16.4674 25.4375L14.828 23.9817C14.0704 23.309 12.9296 23.309 12.172 23.9817L10.5326 25.4374C9.05053 26.7535 6.76254 25.3437 7.27179 23.4281L8.27921 19.6386C8.47335 18.9083 8.23934 18.131 7.67433 17.6293L4.59711 14.8967C3.22162 13.6753 4.08556 11.4012 5.92509 11.4012H8.93128C9.83795 11.4012 10.6312 10.7913 10.8641 9.91506L11.5671 7.27069Z" fill="var(--fill-0, #F8770C)"/>
<path id="Star 3" d="M38.5671 7.27069C39.0939 5.28915 41.9061 5.28914 42.4329 7.27069L43.1359 9.91506C43.3688 10.7913 44.162 11.4012 45.0687 11.4012H48.0749C49.9144 11.4012 50.7784 13.6753 49.4029 14.8967L46.3257 17.6293C45.7607 18.131 45.5267 18.9083 45.7208 19.6386L46.7282 23.4281C47.2375 25.3437 44.9495 26.7536 43.4674 25.4375L41.828 23.9817C41.0704 23.309 39.9296 23.309 39.172 23.9817L37.5326 25.4374C36.0505 26.7535 33.7625 25.3437 34.2718 23.4281L35.2792 19.6386C35.4733 18.9083 35.2393 18.131 34.6743 17.6293L31.5971 14.8967C30.2216 13.6753 31.0856 11.4012 32.9251 11.4012H35.9313C36.838 11.4012 37.6312 10.7913 37.8641 9.91506L38.5671 7.27069Z" fill="var(--fill-0, #F8770C)"/>
<path id="Star 4" d="M65.5671 7.27069C66.0939 5.28915 68.9061 5.28914 69.4329 7.27069L70.1359 9.91506C70.3688 10.7913 71.162 11.4012 72.0687 11.4012H75.0749C76.9144 11.4012 77.7784 13.6753 76.4029 14.8967L73.3257 17.6293C72.7607 18.131 72.5267 18.9083 72.7208 19.6386L73.7282 23.4281C74.2375 25.3437 71.9495 26.7536 70.4674 25.4375L68.828 23.9817C68.0704 23.309 66.9296 23.309 66.172 23.9817L64.5326 25.4374C63.0505 26.7535 60.7625 25.3437 61.2718 23.4281L62.2792 19.6386C62.4733 18.9083 62.2393 18.131 61.6743 17.6293L58.5971 14.8967C57.2216 13.6753 58.0856 11.4012 59.9251 11.4012H62.9313C63.838 11.4012 64.6312 10.7913 64.8641 9.91506L65.5671 7.27069Z" fill="var(--fill-0, #F8770C)"/>
<path id="Star 5" d="M92.5671 7.27069C93.0939 5.28915 95.9061 5.28914 96.4329 7.27069L97.1359 9.91506C97.3688 10.7913 98.162 11.4012 99.0687 11.4012H102.075C103.914 11.4012 104.778 13.6753 103.403 14.8967L100.326 17.6293C99.7607 18.131 99.5267 18.9083 99.7208 19.6386L100.728 23.4281C101.237 25.3437 98.9495 26.7536 97.4674 25.4375L95.828 23.9817C95.0704 23.309 93.9296 23.309 93.172 23.9817L91.5326 25.4374C90.0505 26.7535 87.7625 25.3437 88.2718 23.4281L89.2792 19.6386C89.4733 18.9083 89.2393 18.131 88.6743 17.6293L85.5971 14.8967C84.2216 13.6753 85.0856 11.4012 86.9251 11.4012H89.9313C90.838 11.4012 91.6312 10.7913 91.8641 9.91506L92.5671 7.27069Z" fill="var(--fill-0, #F8770C)"/>
</g>
</svg>
