<svg preserveAspectRatio="none" width="100%" height="100%" overflow="visible" style="display: block;" viewBox="0 0 16 16" fill="none" xmlns="http://www.w3.org/2000/svg">
<g id="Icon">
<path id="Vector" d="M7.68331 1.52993C7.71253 1.4709 7.75766 1.42122 7.81361 1.38648C7.86957 1.35174 7.93412 1.33333 7.99998 1.33333C8.06584 1.33333 8.13039 1.35174 8.18634 1.38648C8.2423 1.42122 8.28743 1.4709 8.31665 1.52993L9.85665 4.64926C9.9581 4.85457 10.1079 5.0322 10.2931 5.1669C10.4783 5.3016 10.6934 5.38934 10.92 5.4226L14.364 5.9266C14.4292 5.93605 14.4905 5.96358 14.541 6.00606C14.5914 6.04855 14.6289 6.10429 14.6493 6.167C14.6697 6.22971 14.6722 6.29687 14.6564 6.36089C14.6406 6.42491 14.6072 6.48323 14.56 6.52926L12.0693 8.9546C11.9051 9.11466 11.7822 9.31225 11.7112 9.53035C11.6402 9.74845 11.6234 9.98052 11.662 10.2066L12.25 13.6333C12.2615 13.6985 12.2545 13.7656 12.2296 13.8271C12.2048 13.8885 12.1633 13.9417 12.1097 13.9806C12.0561 14.0195 11.9926 14.0426 11.9266 14.0472C11.8605 14.0518 11.7944 14.0377 11.736 14.0066L8.65731 12.3879C8.45446 12.2814 8.22877 12.2258 7.99965 12.2258C7.77053 12.2258 7.54483 12.2814 7.34198 12.3879L4.26398 14.0066C4.20553 14.0375 4.13958 14.0515 4.07361 14.0468C4.00765 14.0421 3.94432 14.019 3.89084 13.9801C3.83736 13.9412 3.79587 13.8881 3.77108 13.8267C3.7463 13.7654 3.73922 13.6984 3.75065 13.6333L4.33798 10.2073C4.37678 9.98108 4.35997 9.74886 4.289 9.53063C4.21804 9.31239 4.09505 9.1147 3.93065 8.9546L1.43998 6.52993C1.39238 6.48395 1.35864 6.42553 1.34262 6.36131C1.3266 6.2971 1.32894 6.22967 1.34936 6.16672C1.36979 6.10377 1.40749 6.04782 1.45816 6.00525C1.50884 5.96268 1.57045 5.93519 1.63598 5.92593L5.07931 5.4226C5.30615 5.3896 5.52157 5.30197 5.70703 5.16725C5.8925 5.03254 6.04245 4.85478 6.14398 4.64926L7.68331 1.52993Z" fill="var(--fill-0, white)" stroke="var(--stroke-0, white)" stroke-width="1.33333" stroke-linecap="round" stroke-linejoin="round"/>
</g>
</svg>
